# xmcd CD database file
#
# Track frame offsets:
#	150
#	17515
#	30947
#	48860
#	62702
#	90967
#	109897
#	126180
#	151045
#	178020
#
# Disc length: 2601 seconds
#
# Revision: 3
# Processed by: cddbd v1.5.1PL0 Copyright (c) Steve Scherf et al.
# Submitted via: CDex 1.60beta1
#
DISCID=6a0a270a
DTITLE=SCORPIONS - Animal Magnetism
DYEAR=1980
DGENRE=Hard Rock
TTITLE0=Make It Real
TTITLE1=Donï½'t Make No Promises
TTITLE2=Hold Me Tight
TTITLE3=Twentieth Century Man
TTITLE4=Lady Starlight
TTITLE5=Falling In Love
TTITLE6=Only A Man
TTITLE7=The Zoo
TTITLE8=Animal Magnetism
TTITLE9=Hey You
EXTD=YEAR: 1980
EXTT0=
EXTT1=
EXTT2=
EXTT3=
EXTT4=
EXTT5=
EXTT6=
EXTT7=
EXTT8=
EXTT9=
PLAYORDER=
